<?xml version="1.0" encoding="UTF-8"?>
<svg version="1.1" xmlns="http://www.w3.org/2000/svg" width="1080" height="1080">
<path d="M0 0 C356.4 0 712.8 0 1080 0 C1080 356.4 1080 712.8 1080 1080 C723.6 1080 367.2 1080 0 1080 C0 723.6 0 367.2 0 0 Z " fill="#FF0000" transform="translate(0,0)"/>
<path d="M0 0 C309.21 0 618.42 0 937 0 C940 56 940 56 941 83 C941.30537033 88.17221002 941.62568832 93.33370011 942 98.5 C942.7635239 109.60797328 943.32628678 120.70462609 943.65820312 131.83398438 C943.81476554 136.872738 944.04757544 141.88194916 944.46484375 146.90625 C945.24681292 156.54741916 945.58794167 166.21248043 946 175.875 C946.08753252 177.89087763 946.17526115 179.90674676 946.26318359 181.92260742 C946.47387625 186.76272276 946.6823214 191.60293143 946.89001465 196.44317627 C947.08650474 201.01097128 947.28673165 205.57860139 947.48681641 210.14624023 C947.65925649 214.09743355 947.82944137 218.04872502 948 222 C938.76 222 929.52 222 920 222 C919.608125 219.710625 919.21625 217.42125 918.8125 215.0625 C916.94479834 204.38460408 914.81832348 193.75984306 912.63964844 183.14160156 C912.04040978 180.19847061 911.4603599 177.25213531 910.8828125 174.3046875 C902.38695809 131.99637317 886.32531937 89.45195662 856 58 C855.37351562 57.32195312 854.74703125 56.64390625 854.1015625 55.9453125 C849.59417626 51.183989 844.47746391 47.57441754 839 44 C837.84371094 43.2265625 837.84371094 43.2265625 836.6640625 42.4375 C821.72164623 32.90612484 803.64273711 27.49064391 786 27 C784.73285156 26.9484375 783.46570313 26.896875 782.16015625 26.84375 C771.00611017 26.51628927 757.93093134 26.70123681 748.578125 33.4921875 C742.55009823 39.25163882 740.01625286 46.85265899 739.748151 55.07794076 C739.73719355 56.55086874 739.73689853 58.02390272 739.74552441 59.4968462 C739.74231793 60.31826588 739.73911145 61.13968556 739.73580781 61.98599675 C739.72752137 64.73225749 739.73342736 67.47829938 739.73930359 70.2245636 C739.73628229 72.21590845 739.73239291 74.20725215 739.72771102 76.1985938 C739.71741951 81.66626239 739.7196158 87.1338655 739.72389162 92.60153949 C739.72635675 98.50010377 739.7173473 104.3986522 739.70985413 110.29721069 C739.69709903 121.85161227 739.69530864 133.40599204 739.69765439 144.96039931 C739.69948775 154.35180326 739.69772653 163.7432004 739.69342995 173.1346035 C739.69282754 174.48434048 739.69222634 175.83407745 739.69162634 177.18381443 C739.69071908 179.21780007 739.68981041 181.2517857 739.68889399 183.28577133 C739.68046536 202.19493355 739.67612813 221.1040932 739.68030071 240.01325703 C739.68045709 240.725973 739.68061346 241.43868898 739.68077458 242.1730024 C739.68158035 245.78524151 739.68242612 249.39748061 739.68328788 253.00971971 C739.68345897 253.72710768 739.68363006 254.44449565 739.68380633 255.18362264 C739.68415299 256.63435526 739.68450151 258.08508788 739.68485192 259.5358205 C739.69020862 282.10714774 739.68227977 304.67843591 739.66381836 327.24975586 C739.64309546 352.61566629 739.63237623 377.98155252 739.63639385 403.34747189 C739.63678918 406.05296433 739.63715073 408.75845676 739.63749123 411.4639492 C739.63758196 412.13009723 739.63767269 412.79624526 739.63776617 413.48257959 C739.63893143 423.53235046 739.63225297 433.58209585 739.62167931 443.63186073 C739.60977321 455.06379259 739.60835197 466.49566695 739.62046947 477.92759959 C739.62636362 483.75979772 739.62744267 489.59189064 739.61546707 495.4240818 C739.60462703 500.765343 739.60768941 506.10641089 739.62172876 511.44766297 C739.62438085 513.37762015 739.62199309 515.30759238 739.61399289 517.2375348 C739.09221588 533.44660406 739.09221588 533.44660406 745.25 547.9375 C756.65765477 556.49324108 768.98186912 556.30202729 782.828125 556.4140625 C784.31314106 556.4328214 785.79814698 556.45239812 787.28314209 556.4727478 C791.14957645 556.52357728 795.0160452 556.56346252 798.88262939 556.60089111 C803.54440582 556.64836583 808.20601832 556.70974812 812.86766052 556.76873779 C819.9117057 556.85634864 826.95572912 556.92654163 834 557 C834 566.9 834 576.8 834 587 C743.91 587 653.82 587 561 587 C561 577.1 561 567.2 561 557 C564.32940674 556.98598145 564.32940674 556.98598145 567.72607422 556.97167969 C575.09029421 556.93779087 582.45423749 556.88217636 589.8182354 556.81609726 C594.27955389 556.77672291 598.74067798 556.74448551 603.20214844 556.72900391 C607.514216 556.71377072 611.82574872 556.67920851 616.13757706 556.63169098 C617.7760056 556.61694546 619.41451054 556.60896294 621.05300522 556.60811615 C631.33340105 556.59746759 640.37613027 556.27903132 648.875 549.8125 C656.27192371 540.02245391 655.57116958 530.17607466 655.52139282 518.39616394 C655.52743658 516.37579083 655.53521591 514.3554223 655.54457796 512.33506185 C655.56514649 506.79171312 655.56077225 501.24862298 655.55221677 495.70525301 C655.54728383 489.72350229 655.56530869 483.74181395 655.58029175 477.76008606 C655.60579445 466.0443823 655.60938365 454.32875096 655.60469122 442.6130273 C655.60102364 433.09006935 655.60454873 423.56713831 655.61314011 414.04418373 C655.61434492 412.67525149 655.61554731 411.30631924 655.61674731 409.93738699 C655.61856185 407.87444412 655.62037919 405.81150125 655.62221201 403.74855839 C655.6390677 384.5718256 655.64774483 365.39510292 655.63939857 346.21836376 C655.63908582 345.495659 655.63877307 344.77295424 655.63845084 344.02834933 C655.63683932 340.36553314 655.63514777 336.702717 655.63342424 333.03990086 C655.63308206 332.31247585 655.63273989 331.58505084 655.63238734 330.83558265 C655.63169403 329.364553 655.63099697 327.89352336 655.63029617 326.42249372 C655.61958278 303.53542639 655.63544094 280.64851319 655.67236328 257.76147461 C655.71381409 232.03735532 655.73524663 206.31333151 655.72721231 180.58917695 C655.72642164 177.84520584 655.72569854 175.10123471 655.72501755 172.35726357 C655.72474535 171.34383933 655.72474535 171.34383933 655.72446766 170.30994188 C655.72213768 160.11981287 655.73541727 149.92978041 655.75664139 139.73967552 C655.7807615 128.14744904 655.78328934 116.55543103 655.75906105 104.96320006 C655.74727685 99.04975029 655.74510242 93.13671552 655.76906586 87.2232933 C655.79076121 81.80657067 655.78460475 76.39061006 655.75654249 70.97392324 C655.75124231 69.01773367 655.75600162 67.06148459 655.77201422 65.10535338 C655.86043663 53.49470099 655.68914035 43.36374227 647.41625369 34.25653237 C637.9318514 25.84175569 622.33284943 26.18354818 610.48535156 26.81103516 C581.47636412 29.01663008 553.71321389 42.68673516 534.52636719 64.68994141 C531.20096893 68.68284661 528.08378977 72.81943807 525 77 C524.06414062 78.22783203 524.06414062 78.22783203 523.109375 79.48046875 C513.13266118 93.02362465 506.04345395 108.38272447 500 124 C499.59056152 125.04873291 499.59056152 125.04873291 499.17285156 126.11865234 C494.41396557 138.46293203 491.13673328 151.1627414 488 164 C487.62077393 165.53406494 487.62077393 165.53406494 487.23388672 167.09912109 C483.22393848 183.42661194 480.14263353 199.81653042 477.47729492 216.40991211 C477 219 477 219 476 222 C466.43 222 456.86 222 447 222 C447.10441406 219.78152344 447.20882813 217.56304687 447.31640625 215.27734375 C448.74615536 175.7845476 438.454193 136.42296516 421 101 C420.64437988 100.27103516 420.28875977 99.54207031 419.92236328 98.79101562 C415.142271 89.0915436 409.92404384 80.34993768 403 72 C401.93845703 70.71029297 401.93845703 70.71029297 400.85546875 69.39453125 C384.65143961 50.56282171 364.67142928 40.56872166 341.125 34.1875 C340.36477539 33.9802832 339.60455078 33.77306641 338.82128906 33.55957031 C328.96152573 31.02298044 319.11742473 30.85082678 308.98217773 30.85473633 C307.71745636 30.85137772 306.45273499 30.8480191 305.14968872 30.84455872 C301.70969873 30.83579708 298.26973368 30.83338406 294.82973361 30.83274293 C292.67509695 30.83202843 290.52046649 30.82988669 288.36583138 30.82724571 C280.83413419 30.81802119 273.3024546 30.81390755 265.77075195 30.81469727 C258.77247154 30.81529862 251.77426806 30.80472799 244.77600712 30.7889536 C238.74513783 30.77584856 232.71429363 30.77051455 226.68341023 30.77115268 C223.0911071 30.77140661 219.4988726 30.76861292 215.90658379 30.75797462 C211.90047867 30.74643178 207.89454497 30.75105856 203.88842773 30.75708008 C202.71154892 30.75146057 201.5346701 30.74584106 200.3221283 30.74005127 C190.68608804 30.77678931 181.59610175 31.48905564 174 38 C168.36140149 44.86001599 167.70144726 53.67902111 167.7215271 62.20019531 C167.7128385 63.5396447 167.7128385 63.5396447 167.70397437 64.90615368 C167.68705128 67.88018137 167.6841045 70.85405315 167.68115234 73.828125 C167.67184886 75.9672127 167.66167957 78.10629678 167.65071106 80.24537659 C167.62344442 86.04016492 167.60827148 91.83492899 167.59528303 97.62976456 C167.57963794 103.69029773 167.55285209 109.75078147 167.5272522 115.8112793 C167.48048887 127.28222606 167.44373288 138.75318216 167.41057932 150.22417545 C167.37234069 163.28581176 167.32293506 176.34739837 167.27259517 189.40899277 C167.16931166 216.272625 167.08003958 243.13628917 167 270 C174.49515278 269.96148721 181.98989409 269.90148676 189.48465443 269.81609726 C192.9670801 269.77705276 196.44926918 269.74465914 199.93188477 269.72900391 C227.03450055 269.59812859 251.30503324 267.6638074 273 250 C273.61875 249.54367187 274.2375 249.08734375 274.875 248.6171875 C292.4938949 234.99517153 300.03219273 211.75803733 305 191 C305.16725586 190.30342285 305.33451172 189.6068457 305.50683594 188.88916016 C308.31478709 176.74854555 309.04087967 164.39478581 310 152 C319.24 152 328.48 152 338 152 C338 241.76 338 331.52 338 424 C328.76 424 319.52 424 310 424 C309.85304688 421.94265625 309.70609375 419.8853125 309.5546875 417.765625 C307.76418072 394.11859296 305.57808905 369.58036213 295 348 C294.45472656 346.86820312 293.90945313 345.73640625 293.34765625 344.5703125 C283.65512212 325.53690081 268.14713038 311.85903672 248.23828125 304.02734375 C234.80387758 299.76528324 220.64763411 298.89906289 206.6484375 298.68359375 C204.93837021 298.6524221 204.93837021 298.6524221 203.1937561 298.62062073 C199.58755948 298.5557564 195.98129626 298.49653666 192.375 298.4375 C189.91535797 298.39425461 187.45572243 298.3506385 184.99609375 298.30664062 C178.99746418 298.20014065 172.99876986 298.09826258 167 298 C167.08194922 327.92887094 167.17397982 357.85769803 167.28005161 387.78649315 C167.29257023 391.32120351 167.30500304 394.85591416 167.31738281 398.390625 C167.31984881 399.0943116 167.3223148 399.79799821 167.32485552 400.52300864 C167.3645611 411.91161085 167.39731818 423.30022295 167.42749982 434.68885392 C167.45863221 446.37777052 167.49724925 458.06664519 167.54279006 469.75551462 C167.56804043 476.31964837 167.58982615 482.88375249 167.60334396 489.44792175 C167.61617741 495.6267997 167.63824598 501.80557597 167.66738319 507.98439789 C167.67644887 510.25150707 167.68214685 512.51863261 167.68421364 514.78575897 C167.68754324 517.88345162 167.70303998 520.98085722 167.7215271 524.07849121 C167.718625 525.42093281 167.718625 525.42093281 167.71566427 526.79049444 C167.78709593 534.80877761 168.85476336 541.53170251 174 548 C183.01414032 556.32074491 195.82274642 556.30387568 207.47802734 556.2746582 C208.55634827 556.27976913 209.63466919 556.28488007 210.7456665 556.29014587 C214.27581494 556.30393147 217.8057655 556.30309233 221.3359375 556.30078125 C223.82199168 556.30467637 226.30804521 556.3090127 228.7940979 556.31376648 C233.99703123 556.3212067 239.19989669 556.32095495 244.40283203 556.31567383 C251.00986206 556.30990553 257.61660935 556.32675724 264.22359276 556.3500185 C269.35948257 556.36489182 274.4953066 556.36560884 279.63121414 556.36250877 C282.06361065 556.36301596 284.49601144 556.36813779 286.92838669 556.37832069 C327.8184891 556.5284182 367.44896329 548.72813502 399 521 C399.84046875 520.29230469 400.6809375 519.58460938 401.546875 518.85546875 C443.50063632 482.69966513 458.6629797 420.8085025 465 368 C474.57 368 484.14 368 494 368 C494 441.06161783 488.26814121 514.01151287 485 587 C324.95 587 164.9 587 0 587 C0 577.1 0 567.2 0 557 C5.36958984 556.96132812 5.36958984 556.96132812 10.84765625 556.921875 C14.36278732 556.88332549 17.87777806 556.83820692 21.39282227 556.79248047 C23.81234902 556.76447184 26.23196386 556.7431587 28.65161133 556.72900391 C52.03581544 557.08350559 52.03581544 557.08350559 73 548 C77.18520354 543.71746614 79.3116556 539.63541981 81 534 C81.17421313 533.46277695 81.34842626 532.9255539 81.52791858 532.37205136 C82.2065351 528.96223018 82.13960984 525.57948613 82.13142776 522.11749077 C82.13450672 520.9120954 82.13450672 520.9120954 82.13764787 519.68234861 C82.14333052 516.97269593 82.14185905 514.26309388 82.14044189 511.55343628 C82.14302481 509.59783022 82.14603776 507.64222468 82.1494453 505.68661988 C82.15752729 500.29921322 82.15930554 494.91181987 82.16004276 489.52440786 C82.16189125 483.71918472 82.16943757 477.91396853 82.17617798 472.10874939 C82.18977062 459.40830757 82.19578754 446.7078689 82.20018864 434.00742102 C82.20294964 426.079421 82.20718675 418.1514222 82.21169281 410.223423 C82.22388698 388.2798387 82.2342212 366.3362554 82.2375679 344.39266777 C82.23778953 342.97351702 82.23801132 341.55436628 82.23823325 340.13521553 C82.23845389 338.71263644 82.23867438 337.29005734 82.2388947 335.86747825 C82.23933725 333.01354019 82.23978437 330.15960212 82.24023438 327.30566406 C82.24034377 326.59805292 82.24045316 325.89044178 82.24056586 325.16138787 C82.24419609 302.21964381 82.26011455 279.27793136 82.28342474 256.33619941 C82.30802501 232.08041697 82.32174084 207.82465259 82.32293582 183.56885731 C82.32378705 170.34692219 82.32961627 157.12502671 82.34775543 143.90310287 C82.36314694 132.64415675 82.36828249 121.38526479 82.36001733 110.12631015 C82.35610741 104.38134675 82.35705721 98.63649245 82.37107468 92.89154243 C82.3837929 87.63097935 82.38263423 82.37060759 82.37048396 77.11004485 C82.36852337 75.20824759 82.37162211 73.30643688 82.38032833 71.40465854 C82.59548607 54.14574202 82.59548607 54.14574202 75 39 C66.15665944 31.07545194 54.64222997 30.40247752 43.26171875 30.390625 C42.01493851 30.37408875 40.76815826 30.35755249 39.4835968 30.34051514 C35.55151247 30.29242833 31.61981373 30.270751 27.6875 30.25 C25.00060328 30.22396795 22.31378292 30.19230303 19.62695312 30.16015625 C13.08446466 30.08344704 6.54315341 30.0425571 0 30 C0 20.1 0 10.2 0 0 Z " fill="#FFFEFE" transform="translate(76,129)"/>
<path d="M0 0 C4.02554298 2.26791154 6.53228218 4.59684655 8 9 C8.50149463 15.11823453 8.06790897 18.09458036 4 23 C0.80091643 24.59954179 -2.52786461 24.49700546 -6 24 C-9.28320608 21.60414692 -11.04096682 18.52625973 -13 15 C-15.86126184 15.39465681 -16.79139704 15.73912183 -18.63671875 18.046875 C-19.08660156 18.69140625 -19.53648437 19.3359375 -20 20 C-19.60167969 20.49628906 -19.20335937 20.99257813 -18.79296875 21.50390625 C-11.47649853 30.88536563 -9.67675752 37.96479456 -11 50 C-13.43069288 58.15632501 -18.57181104 64.29179969 -25.765625 68.69140625 C-37.93419456 75.16570928 -49.8155461 75.33856476 -63.27392578 75.45629883 C-74.46528593 75.54521531 -74.46528593 75.54521531 -85 79 C-85 81.31 -85 83.62 -85 86 C-78.50831241 87.9533443 -72.74268124 88.21117255 -65.9921875 88.0546875 C-63.84896496 88.02938061 -61.70573543 88.00465976 -59.5625 87.98046875 C-56.22535748 87.93107669 -52.88859153 87.87527359 -49.55175781 87.80810547 C-18.20848806 87.21803798 -18.20848806 87.21803798 -8.3984375 95.484375 C-3.46159856 100.83491552 -1.67564919 105.63425828 -1.4375 112.9375 C-1.77238941 121.1158519 -3.55621664 127.67762282 -9.125 133.8125 C-21.3426611 144.7698129 -38.6489666 146.68913054 -54.39160156 146.46655273 C-56.63160863 146.43741403 -58.86925576 146.44604559 -61.109375 146.45898438 C-76.0644041 146.43684518 -90.74563825 144.71843976 -102 134 C-104.7491119 129.54681532 -104.62053617 125.0801228 -104 120 C-101.27641523 114.16374691 -94.75465896 112.12228557 -89 110 C-87.34177009 109.62695514 -85.67646498 109.27991793 -84 109 C-84.87011719 108.58041016 -84.87011719 108.58041016 -85.7578125 108.15234375 C-92.19614762 104.84818167 -97.63354922 101.09935235 -100 94 C-100.60016936 88.37218238 -100.59157408 83.42109618 -97.41015625 78.59765625 C-94.69432539 75.52071769 -91.40310543 73.25709046 -88 71 C-86.515 70.01 -86.515 70.01 -85 69 C-85.59167969 68.57589844 -86.18335938 68.15179687 -86.79296875 67.71484375 C-93.41667865 62.79838697 -98.36316733 58.03660741 -101 50 C-102.14068703 39.49367205 -101.02238679 31.48831187 -94.4609375 23.01171875 C-87.0847765 14.8490003 -75.81695394 10.75822648 -65.04003906 9.71289062 C-62.02090395 9.60000725 -59.02089589 9.5900539 -56 9.625 C-54.99710938 9.61339844 -53.99421875 9.60179687 -52.9609375 9.58984375 C-46.74772214 9.61392598 -41.39090524 10.45224826 -35.47265625 12.35693359 C-32.84522822 13.04025167 -30.70269225 13.22369676 -28 13 C-25.98873388 11.44381643 -25.98873388 11.44381643 -24.25 9.3125 C-17.44416863 2.15047559 -10.1686342 -2.20524597 0 0 Z " fill="#FFFAFA" transform="translate(942,828)"/>
<path d="M0 0 C8.66752635 7.2497897 14.28981528 17.06339239 15.30175781 28.35791016 C16.18517928 43.38841338 15.74606345 56.85438346 5.69921875 68.92578125 C-4.12267334 79.49779397 -18.39686136 87.3514551 -33.05078125 88.12109375 C-34.78369511 88.14460928 -36.51704734 88.1454578 -38.25 88.125 C-39.16571777 88.11670166 -40.08143555 88.10840332 -41.02490234 88.09985352 C-55.62488638 87.73800879 -67.05478441 82.35602505 -77.75 72.5 C-82.49223254 67.51174824 -85.33051906 62.01277107 -87.9375 55.6875 C-88.44796875 54.48673828 -88.44796875 54.48673828 -88.96875 53.26171875 C-93.2712479 41.40993055 -91.76577721 28.0888524 -86.9375 16.6875 C-80.76676764 3.67081836 -70.48373052 -4.76028682 -57.39453125 -10.41015625 C-37.95607616 -16.88964128 -16.18843271 -11.63802147 0 0 Z " fill="#FFFBFB" transform="translate(261.9375,850.3125)"/>
<path d="M0 0 C0.99 0.66 1.98 1.32 3 2 C3.11214844 1.27425781 3.22429687 0.54851563 3.33984375 -0.19921875 C4.02961387 -3.12563993 5.05510814 -5.22287809 6.5625 -7.8125 C7.01753906 -8.60269531 7.47257812 -9.39289062 7.94140625 -10.20703125 C8.46541016 -11.09455078 8.46541016 -11.09455078 9 -12 C11.64 -12 14.28 -12 17 -12 C17.28745856 -5.18655042 17.57197122 1.62701773 17.85449219 8.44067383 C17.95082806 10.75580594 18.04782391 13.0709107 18.14550781 15.38598633 C18.28626671 18.7247013 18.42460648 22.06350935 18.5625 25.40234375 C18.60624756 26.42770737 18.64999512 27.45307098 18.69506836 28.50950623 C18.93344848 34.34577217 19.04230799 40.15885322 19 46 C15.7 46 12.4 46 9 46 C8.79246094 44.93523438 8.58492188 43.87046875 8.37109375 42.7734375 C5.17191891 27.32865158 -0.26494972 12.40831397 -13.875 3.125 C-22.27201174 -1.61471951 -31.29617014 -3.50978604 -40.7578125 -1.37890625 C-50.25132568 1.59608047 -56.49775353 6.82937794 -61.31933594 15.46606445 C-65.78768694 24.07518384 -67.748574 32.41262892 -69 42 C-69.18046875 43.03640625 -69.3609375 44.0728125 -69.546875 45.140625 C-72.31356687 68.70520748 -71.16380423 97.50368027 -56 117 C-56 117.66 -56 118.32 -56 119 C-55.2265625 119.37125 -55.2265625 119.37125 -54.4375 119.75 C-51.88209061 121.06046635 -49.43143002 122.51079126 -46.9765625 124 C-37.55771869 128.76526485 -26.8498213 127.90262822 -16.921875 125.10546875 C-5.71804701 120.86658731 1.7339289 113.63473118 6.83203125 102.9765625 C9.11771262 97.151515 10.5494751 91.07761828 12 85 C15.3 85 18.6 85 22 85 C21.51824555 98.4891247 15.67101113 110.86394573 7 121 C6.45730469 121.65355469 5.91460937 122.30710937 5.35546875 122.98046875 C-2.86588384 132.04195956 -15.45166784 138.24749204 -27.62695312 139.20703125 C-48.70965048 140.20486006 -66.24283247 136.47818966 -82.5390625 122.30859375 C-95.37786999 110.26456958 -105.14480656 93.89805946 -106.17700195 75.91650391 C-106.72233176 45.30416526 -106.72233176 45.30416526 -102 34 C-101.73687012 33.35466309 -101.47374023 32.70932617 -101.20263672 32.04443359 C-96.84644491 21.62359445 -91.09323117 13.80547184 -83 6 C-82.36707031 5.33613281 -81.73414062 4.67226563 -81.08203125 3.98828125 C-58.76183655 -17.93773782 -24.39467825 -16.42906902 0 0 Z " fill="#FFFAFA" transform="translate(129,799)"/>
<path d="M0 0 C1.66054831 6.28636144 2.89309248 12.59406714 4 19 C4.38929688 18.50371094 4.77859375 18.00742187 5.1796875 17.49609375 C12.81634407 8.22301077 22.65696479 0.90057203 34.8359375 -0.4140625 C44.7954502 -0.93036816 52.03039634 0.91388143 59.8125 7.3125 C67.93450963 17.29096898 69.28441831 26.01466274 69.2734375 38.671875 C69.29370926 41.13411927 69.31455969 43.59635883 69.3359375 46.05859375 C69.35861284 49.91882335 69.37504349 53.77886679 69.38085938 57.63916016 C69.39034918 61.37956827 69.42406241 65.11915093 69.4609375 68.859375 C69.45336929 70.59534943 69.45336929 70.59534943 69.44564819 72.36639404 C69.45891144 73.44141174 69.47217468 74.51642944 69.48583984 75.62402344 C69.48868988 76.56808044 69.49153992 77.51213745 69.49447632 78.48480225 C70.15003967 81.74651191 71.44148201 82.94130012 74 85 C76.34038761 85.68533632 76.34038761 85.68533632 78.75 85.75 C80.1525 85.8325 81.555 85.915 83 86 C83 88.97 83 91.94 83 95 C64.85 95 46.7 95 28 95 C28 92.03 28 89.06 28 86 C28.75925781 85.91363281 29.51851563 85.82726562 30.30078125 85.73828125 C31.29464844 85.59777344 32.28851563 85.45726562 33.3125 85.3125 C34.29863281 85.18488281 35.28476562 85.05726563 36.30078125 84.92578125 C39.0854091 84.22391565 39.0854091 84.22391565 40.64379883 82.09765625 C42.62262132 77.57789031 42.42878509 73.39498842 42.3984375 68.51171875 C42.40130768 67.49455276 42.40417786 66.47738678 42.40713501 65.42939758 C42.40917358 63.28015587 42.40365822 61.13089552 42.39111328 58.98168945 C42.37510698 55.7093703 42.39094377 52.43829562 42.41015625 49.16601562 C42.40817281 47.07291396 42.40432705 44.97981307 42.3984375 42.88671875 C42.40451019 41.91562668 42.41058289 40.94453461 42.4168396 39.9440155 C42.34228163 32.65706577 41.42603302 26.86147484 36.5625 21.125 C31.96125338 17.30933207 28.51055658 16.49047003 22.59765625 16.62109375 C16.93727008 17.44674406 13.29626846 20.8189554 9.1875 24.5625 C2.38167768 33.71040116 3.56311998 46.97426758 3.66381836 57.77539062 C3.68769494 60.52242768 3.68432394 63.26850849 3.67773438 66.015625 C3.68330366 67.77083911 3.69040879 69.52604917 3.69921875 71.28125 C3.69830734 72.09791138 3.69739594 72.91457275 3.69645691 73.75598145 C3.71353487 79.20528491 3.71353487 79.20528491 6 84 C8.43387753 85.21693876 10.41838846 85.31959896 13.125 85.5625 C14.49011719 85.68818359 14.49011719 85.68818359 15.8828125 85.81640625 C16.58148438 85.87699219 17.28015625 85.93757812 18 86 C18 88.97 18 91.94 18 95 C-1.14 95 -20.28 95 -40 95 C-40 92.03 -40 89.06 -40 86 C-38.87851562 85.94392578 -38.87851562 85.94392578 -37.734375 85.88671875 C-36.74953125 85.82097656 -35.7646875 85.75523437 -34.75 85.6875 C-33.77546875 85.62949219 -32.8009375 85.57148437 -31.796875 85.51171875 C-28.69262837 84.94376301 -27.2556458 84.1780433 -25 82 C-23.94753123 78.84259368 -23.84798551 76.54814836 -23.80712891 73.23095703 C-23.79106598 72.04607697 -23.77500305 70.8611969 -23.75845337 69.64041138 C-23.71402536 64.23146091 -23.67251733 58.82265479 -23.64990234 53.41357422 C-23.63655599 50.55778014 -23.60868772 47.70269944 -23.56787109 44.84716797 C-23.50908416 40.73392683 -23.4912461 36.62145174 -23.4765625 32.5078125 C-23.45389313 31.23060333 -23.43122375 29.95339417 -23.40786743 28.63748169 C-23.14762463 21.6084403 -23.14762463 21.6084403 -26.36547852 15.71362305 C-29.12273465 13.92016731 -31.07287938 13.16264436 -34.3125 12.6875 C-35.19550781 12.54699219 -36.07851563 12.40648437 -36.98828125 12.26171875 C-37.98408203 12.13216797 -37.98408203 12.13216797 -39 12 C-39.02689216 10.52093108 -39.04634621 9.04172517 -39.0625 7.5625 C-39.07410156 6.73878906 -39.08570313 5.91507813 -39.09765625 5.06640625 C-39 3 -39 3 -38 2 C-35.61443262 1.76862962 -33.25103191 1.5964938 -30.859375 1.46484375 C-30.14017883 1.42186661 -29.42098267 1.37888947 -28.67999268 1.33460999 C-27.15348854 1.24424853 -25.62684999 1.15613449 -24.10009766 1.07006836 C-21.77346006 0.93882338 -19.44727972 0.80110775 -17.12109375 0.66210938 C-15.63804323 0.57513814 -14.15497089 0.48853783 -12.671875 0.40234375 C-11.63253815 0.34142799 -11.63253815 0.34142799 -10.57220459 0.27928162 C-7.04331452 0.08157053 -3.53446041 -0.04398857 0 0 Z " fill="#FFFCFC" transform="translate(335,840)"/>
<path d="M0 0 C10.32945489 8.03732801 15.28775524 18.99692186 17.890625 31.5625 C18.33906485 35.81087755 18.1875 40.10302035 18.1875 44.375 C-2.9325 44.375 -24.0525 44.375 -45.8125 44.375 C-44.32949522 61.67145544 -44.32949522 61.67145544 -35.5 75.9375 C-29.24331726 80.51852689 -22.53666131 82.51505034 -14.8125 81.375 C-2.49219839 77.98356394 4.24377758 70.75364893 11.1875 60.375 C14.1594385 61.49951727 16.52190687 62.59793791 19.1875 64.375 C17.59061741 69.4850243 14.54170719 73.29703117 11.1875 77.375 C10.68347656 77.98859375 10.17945313 78.6021875 9.66015625 79.234375 C1.31077386 88.46156532 -10.13917178 92.01416693 -22.203125 92.625 C-37.85141004 93.15622515 -51.23703345 90.18115556 -63.09765625 79.2734375 C-67.89887987 74.19401214 -71.15496284 68.81751434 -73.8125 62.375 C-74.1321875 61.653125 -74.451875 60.93125 -74.78125 60.1875 C-79.36950099 47.95216403 -78.12493268 32.0936015 -72.8125 20.375 C-66.27772326 7.98480449 -56.67579502 -1.55707714 -43.375 -6.5625 C-28.60116235 -10.34460244 -12.6458642 -8.4419688 0 0 Z " fill="#FFFAFA" transform="translate(1037.8125,845.625)"/>
<path d="M0 0 C10.32945489 8.03732801 15.28775524 18.99692186 17.890625 31.5625 C18.33906485 35.81087755 18.1875 40.10302035 18.1875 44.375 C-2.9325 44.375 -24.0525 44.375 -45.8125 44.375 C-44.32949522 61.67145544 -44.32949522 61.67145544 -35.5 75.9375 C-29.24331726 80.51852689 -22.53666131 82.51505034 -14.8125 81.375 C-2.49219839 77.98356394 4.24377758 70.75364893 11.1875 60.375 C14.1594385 61.49951727 16.52190687 62.59793791 19.1875 64.375 C17.59061741 69.4850243 14.54170719 73.29703117 11.1875 77.375 C10.68347656 77.98859375 10.17945313 78.6021875 9.66015625 79.234375 C1.31077386 88.46156532 -10.13917178 92.01416693 -22.203125 92.625 C-37.85141004 93.15622515 -51.23703345 90.18115556 -63.09765625 79.2734375 C-67.89887987 74.19401214 -71.15496284 68.81751434 -73.8125 62.375 C-74.1321875 61.653125 -74.451875 60.93125 -74.78125 60.1875 C-79.36950099 47.95216403 -78.12493268 32.0936015 -72.8125 20.375 C-66.27772326 7.98480449 -56.67579502 -1.55707714 -43.375 -6.5625 C-28.60116235 -10.34460244 -12.6458642 -8.4419688 0 0 Z " fill="#FFFAFA" transform="translate(695.8125,845.625)"/>
<path d="M0 0 C1.51787109 -0.01836914 1.51787109 -0.01836914 3.06640625 -0.03710938 C14.51140662 -0.05937591 25.06203837 2.52963672 33.6875 10.5 C37.89668689 15.07649801 39.48111476 19.63309025 40.125 25.75 C39.51944999 31.30087508 37.96801327 35.42040069 33.6875 39.0625 C28.51201291 42.80646938 24.05191152 43.00408572 17.75 42.1875 C14.57147684 40.54301311 12.37198236 38.43146473 10.75 35.1875 C10.00493906 27.82238937 10.73480193 23.33577205 14.75 17.1875 C14.75 15.8675 14.75 14.5475 14.75 13.1875 C7.4802705 10.1719085 0.23468986 8.68393847 -7.515625 10.80859375 C-12.99600153 13.16180886 -16.41286008 17.00971965 -19.25 22.1875 C-23.0397067 31.78019509 -23.45606093 41.30064423 -23.5 51.5 C-23.520625 52.68529297 -23.54125 53.87058594 -23.5625 55.09179688 C-23.6066686 65.04629612 -21.82704519 72.90160429 -16.25 81.1875 C-10.82798923 86.48902164 -5.54208092 89.30367968 2.0625 89.625 C11.71801159 89.28204467 18.52884905 85.41182085 25.4765625 78.84765625 C29.23121779 74.45432248 31.54164202 69.4929454 33.75 64.1875 C37.08822957 64.80199997 39.77209492 65.53310829 42.75 67.1875 C39.32493613 78.47200994 32.36974145 87.52558151 22.3046875 93.68359375 C13.15045136 98.5189818 4.27365585 100.74066586 -6.0625 100.625 C-7.02518799 100.61670166 -7.98787598 100.60840332 -8.97973633 100.59985352 C-22.20645358 100.28728876 -33.42669848 96.31440915 -43.3125 87.30859375 C-53.9315336 75.98009885 -55.9411165 62.60266431 -55.55859375 47.6640625 C-54.86385214 34.06327027 -48.22273733 22.19611742 -38.40625 12.96484375 C-27.06696776 3.61815277 -14.38814291 0.00902644 0 0 Z " fill="#FFF9F9" transform="translate(487.25,837.8125)"/>
<path d="M0 0 C0.495 11.88 0.495 11.88 1 24 C2.65 20.7 4.3 17.4 6 14 C10.98528752 7.50972002 16.13022153 2.62325949 24 0 C31.69528289 -0.64215083 38.64883836 -0.83001922 45 4 C49.17700774 8.28692899 50.84075025 11.99345319 51.3125 17.9375 C51.13449951 23.50786827 49.09625488 26.82726222 45.3125 30.875 C42.04952723 32.96822781 39.93340233 33.80263245 36.03125 33.5625 C32.23612346 32.51154188 29.49562502 29.97304894 27 27 C25.61523496 22.84570487 25.18642497 18.83054381 27 14.75 C27.33 14.1725 27.66 13.595 28 13 C28 12.01 28 11.02 28 10 C23.05498544 10.46000135 20.44400494 11.38379482 17 15 C6.61068474 31.29908161 3.73664401 47.66629355 3.625 66.6875 C3.61714478 67.36228394 3.60928955 68.03706787 3.60119629 68.7322998 C3.5835663 70.67952632 3.59213616 72.62693525 3.6015625 74.57421875 C3.60494629 75.71463623 3.60833008 76.85505371 3.61181641 78.0300293 C4.04225587 81.32329729 4.59999418 82.72425533 7 85 C8.90987039 85.63311705 8.90987039 85.63311705 11.01171875 85.609375 C12.14770508 85.65771484 12.14770508 85.65771484 13.30664062 85.70703125 C14.09232422 85.72121094 14.87800781 85.73539063 15.6875 85.75 C16.88342773 85.79447266 16.88342773 85.79447266 18.10351562 85.83984375 C20.06846749 85.91044082 22.03423977 85.95749708 24 86 C24 88.97 24 91.94 24 95 C2.55 95 -18.9 95 -41 95 C-41 92.03 -41 89.06 -41 86 C-39.41058594 85.83564453 -39.41058594 85.83564453 -37.7890625 85.66796875 C-36.4009597 85.50852451 -35.01294302 85.34832916 -33.625 85.1875 C-32.92632813 85.11724609 -32.22765625 85.04699219 -31.5078125 84.97460938 C-29.65667662 84.75211708 -27.82461795 84.38337478 -26 84 C-23.6950754 80.54261309 -23.74302845 79.21559582 -23.7253418 75.13916016 C-23.71580978 73.93425934 -23.70627777 72.72935852 -23.69645691 71.48794556 C-23.69736832 70.18481415 -23.69827972 68.88168274 -23.69921875 67.5390625 C-23.69533087 66.18769194 -23.69099601 64.8363226 -23.68623352 63.48495483 C-23.67877209 60.65203899 -23.6790615 57.81924776 -23.68432617 54.98632812 C-23.69011421 51.36250564 -23.67320622 47.73919537 -23.6499815 44.11545753 C-23.6352205 41.32383255 -23.63437575 38.53233016 -23.63749123 35.74067307 C-23.63673045 33.75707499 -23.62287264 31.77349589 -23.60881042 29.78994751 C-23.61815361 27.9731398 -23.61815361 27.9731398 -23.62768555 26.11962891 C-23.62705612 25.05612213 -23.6264267 23.99261536 -23.6257782 22.8968811 C-24.05590717 19.56721813 -25.02277216 17.69069334 -27 15 C-31.05173285 12.68472408 -35.42984293 12.46476174 -40 12 C-40.02689216 10.52093108 -40.04634621 9.04172517 -40.0625 7.5625 C-40.07410156 6.73878906 -40.08570313 5.91507813 -40.09765625 5.06640625 C-40 3 -40 3 -39 2 C-34.93517192 1.47351045 -30.83687056 1.24064699 -26.75 0.9375 C-25.62335937 0.84662109 -24.49671875 0.75574219 -23.3359375 0.66210938 C-15.53568432 0.06861185 -7.82243953 -0.08125803 0 0 Z " fill="#FFFBFB" transform="translate(773,840)"/>
<path d="M0 0 C6.33395908 2.75283606 10.23716 7.52861909 12.78125 13.87890625 C17.8161969 29.78256063 19.1949282 54.03045223 11.59375 69.2578125 C8.35804209 74.50156266 4.42184528 78.14678918 -1.15625 80.7578125 C-7.12374572 81.97566877 -11.1914949 82.31458224 -16.46875 79.1953125 C-23.95891949 73.94779649 -26.60075228 67.00690292 -28.40625 58.3203125 C-30.73806863 42.74850677 -32.21677537 20.28679807 -22.54296875 6.89453125 C-16.35586563 -0.16862187 -9.08763312 -2.52789795 0 0 Z " fill="#FF0202" transform="translate(231.21875,847.6171875)"/>
<path d="M0 0 C1.36656738 0.00296082 1.36656738 0.00296082 2.76074219 0.00598145 C4.97592537 0.01106881 7.19108042 0.01821751 9.40625 0.02734375 C9.41211624 1.0207074 9.41798248 2.01407104 9.42402649 3.03753662 C9.4812224 12.39591769 9.55396754 21.75406569 9.64196491 31.11220932 C9.68670563 35.92342202 9.72595356 40.7345493 9.75268555 45.54589844 C9.77868164 50.18853397 9.81905773 54.83084149 9.86943626 59.47327423 C9.88613002 61.24505791 9.89762866 63.01689835 9.90386391 64.78874969 C9.91347785 67.26934755 9.94150372 69.74910151 9.97387695 72.22949219 C9.97244186 72.96317017 9.97100677 73.69684814 9.9695282 74.45275879 C10.02700505 77.56371076 10.24273721 79.7325031 11.76457214 82.47662354 C14.10253688 84.68505265 15.9276804 84.62835224 19.09375 84.77734375 C20.58455078 84.86242187 20.58455078 84.86242187 22.10546875 84.94921875 C22.86472656 84.975 23.62398437 85.00078125 24.40625 85.02734375 C24.40625 87.99734375 24.40625 90.96734375 24.40625 94.02734375 C5.92625 94.02734375 -12.55375 94.02734375 -31.59375 94.02734375 C-31.59375 91.05734375 -31.59375 88.08734375 -31.59375 85.02734375 C-30.32917969 84.86298828 -30.32917969 84.86298828 -29.0390625 84.6953125 C-27.94335938 84.53675781 -26.84765625 84.37820313 -25.71875 84.21484375 C-24.62820313 84.06402344 -23.53765625 83.91320312 -22.4140625 83.7578125 C-19.28136154 83.28068634 -19.28136154 83.28068634 -17.59375 80.02734375 C-17.2752133 77.20505943 -17.2752133 77.20505943 -17.30322266 73.96704102 C-17.29046295 72.718871 -17.27770325 71.47070099 -17.26455688 70.18470764 C-17.26149956 68.82105667 -17.25927163 67.45740362 -17.2578125 66.09375 C-17.25138534 64.69514326 -17.24465704 63.29653787 -17.23764038 61.89793396 C-17.22566658 58.96667361 -17.22195969 56.03553113 -17.22314453 53.10424805 C-17.22334783 49.35017781 -17.19603641 45.59686373 -17.16160011 41.84297276 C-17.13935129 38.95444779 -17.13530633 36.06610546 -17.13636398 33.17750359 C-17.13400532 31.79361297 -17.12516673 30.40971752 -17.10969925 29.02591133 C-17.09008249 27.08972051 -17.09838875 25.1533078 -17.10791016 23.21704102 C-17.1036351 21.56515526 -17.1036351 21.56515526 -17.09927368 19.87989807 C-17.70995598 16.35697016 -18.81087513 15.20177737 -21.59375 13.02734375 C-24.15531672 12.13173259 -24.15531672 12.13173259 -26.84375 11.77734375 C-27.73578125 11.6278125 -28.6278125 11.47828125 -29.546875 11.32421875 C-30.22234375 11.22625 -30.8978125 11.12828125 -31.59375 11.02734375 C-31.59375 8.05734375 -31.59375 5.08734375 -31.59375 2.02734375 C-27.71321349 1.05720962 -24.06182892 0.68685188 -20.09375 0.46484375 C-19.39894531 0.42564819 -18.70414063 0.38645264 -17.98828125 0.34606934 C-11.987886 0.04140267 -6.00729862 -0.02518725 0 0 Z " fill="#FFFCFC" transform="translate(577.59375,840.97265625)"/>
<path d="M0 0 C1.48447157 -0.0115707 2.96889991 -0.03210226 4.453125 -0.06152344 C19.80580513 -0.364548 19.80580513 -0.364548 26.66137695 4.29516602 C28.66137695 6.29516602 28.66137695 6.29516602 29.09887695 10.10766602 C28.98322831 13.30535107 28.6840325 14.26079208 26.84887695 17.04516602 C12.4134367 27.23488855 -9.80349286 27.13250834 -26.71362305 24.54516602 C-31.90913124 23.38879899 -35.50794945 21.18686206 -39.21362305 17.35766602 C-40.72927556 14.57896975 -41.08126703 13.41427076 -40.33862305 10.29516602 C-35.07666452 3.61652635 -27.59497013 1.91890315 -19.5534668 0.74047852 C-13.05427404 0.07156284 -6.5274333 0.03536926 0 0 Z " fill="#FF0404" transform="translate(895.338623046875,939.704833984375)"/>
<path d="M0 0 C5.89890841 3.06289475 9.41301878 7.0135217 11.75 13.1875 C14.09564632 20.90377916 13.52698478 28.41904567 11 36 C8.26455273 40.90493993 5.06697752 44.46651124 0 47 C-6.11054235 47.50921186 -9.13797331 47.08852244 -14 43 C-20.34121213 36.30649831 -20.5374222 28.73378327 -20.3046875 19.9921875 C-19.95030719 13.78028148 -18.48031697 8.72176375 -14.234375 4.0625 C-9.53475677 0.06597426 -6.07660665 -0.98009785 0 0 Z " fill="#FF0404" transform="translate(890,847)"/>
<path d="M0 0 C5.67356804 3.25861064 8.64289665 7.15930832 11.0390625 13.26953125 C12.11994266 18.7640054 13.40785741 25.32390855 10.45703125 30.3515625 C7.97422137 32.92740507 6.0311961 33.07364575 2.51098633 33.19555664 C1.17267836 33.19539881 -0.16563632 33.1897787 -1.50390625 33.1796875 C-2.56294914 33.17756508 -2.56294914 33.17756508 -3.64338684 33.17539978 C-5.89511376 33.16980889 -8.14674071 33.15725813 -10.3984375 33.14453125 C-11.92643085 33.13951507 -13.45442577 33.13495237 -14.98242188 33.13085938 C-18.72529885 33.11984245 -22.46810123 33.10258412 -26.2109375 33.08203125 C-26.25863228 31.03929394 -26.29233066 28.99622743 -26.3203125 26.953125 C-26.34061523 25.81544678 -26.36091797 24.67776855 -26.38183594 23.50561523 C-26.01469503 16.15073385 -22.99257234 8.68337492 -18.2109375 3.08203125 C-12.52099557 -1.15753333 -6.80835284 -2.82678961 0 0 Z " fill="#FF0303" transform="translate(1018.2109375,847.91796875)"/>
<path d="M0 0 C5.67356804 3.25861064 8.64289665 7.15930832 11.0390625 13.26953125 C12.11994266 18.7640054 13.40785741 25.32390855 10.45703125 30.3515625 C7.97422137 32.92740507 6.0311961 33.07364575 2.51098633 33.19555664 C1.17267836 33.19539881 -0.16563632 33.1897787 -1.50390625 33.1796875 C-2.56294914 33.17756508 -2.56294914 33.17756508 -3.64338684 33.17539978 C-5.89511376 33.16980889 -8.14674071 33.15725813 -10.3984375 33.14453125 C-11.92643085 33.13951507 -13.45442577 33.13495237 -14.98242188 33.13085938 C-18.72529885 33.11984245 -22.46810123 33.10258412 -26.2109375 33.08203125 C-26.25863228 31.03929394 -26.29233066 28.99622743 -26.3203125 26.953125 C-26.34061523 25.81544678 -26.36091797 24.67776855 -26.38183594 23.50561523 C-26.01469503 16.15073385 -22.99257234 8.68337492 -18.2109375 3.08203125 C-12.52099557 -1.15753333 -6.80835284 -2.82678961 0 0 Z " fill="#FF0303" transform="translate(676.2109375,847.91796875)"/>
<path d="M0 0 C4.86434794 2.10468196 7.64709899 5.28735814 10 10 C10.91469792 15.59490229 11.07496122 21.23570406 7.8125 26.0625 C4.72175084 29.57276913 2.24786086 31.72461123 -2.55078125 32.3125 C-8.55155326 32.57234398 -12.37556877 32.17326721 -17 28 C-21.3022759 23.23261319 -22.36282503 19.56252705 -22.28125 13.28125 C-21.69180611 8.50020514 -18.85179203 5.75038822 -15.375 2.6875 C-10.49257797 -0.78158934 -5.86555674 -0.72004765 0 0 Z " fill="#FFF9F9" transform="translate(577,790)"/>
</svg>
